<svg width="120" height="40" viewBox="0 0 120 40" fill="none" xmlns="http://www.w3.org/2000/svg">
<rect width="120" height="40" rx="6" fill="white"/>
<path d="M24.7045 20.763C24.7166 19.8431 24.9669 18.9411 25.4321 18.141C25.8972 17.3409 26.5621 16.6687 27.3648 16.1869C26.8548 15.4758 26.1821 14.8907 25.4 14.4779C24.6178 14.065 23.7479 13.836 22.8592 13.8088C20.9635 13.6146 19.1258 14.9163 18.1598 14.9163C17.1751 14.9163 15.6878 13.8281 14.0862 13.8603C13.0502 13.893 12.0406 14.1871 11.1557 14.714C10.2708 15.2408 9.54075 15.9825 9.03674 16.8668C6.85352 20.5571 8.48201 25.9808 10.5734 28.9639C11.6197 30.4246 12.8426 32.0562 14.4428 31.9984C16.0086 31.9349 16.5934 31.0235 18.4835 31.0235C20.3561 31.0235 20.9048 31.9984 22.5374 31.9616C24.2176 31.9349 25.2762 30.4944 26.2859 29.0198C27.0377 27.979 27.6162 26.8287 28 25.6115C27.0238 25.2084 26.1908 24.5337 25.6048 23.6715C25.0187 22.8093 24.7056 21.7977 24.7045 20.763Z" fill="black"/>
<path d="M21.6208 11.8471C22.5369 10.7734 22.9883 9.39335 22.879 8C21.4793 8.14352 20.1865 8.7966 19.258 9.82911C18.804 10.3335 18.4563 10.9203 18.2348 11.556C18.0132 12.1917 17.9222 12.8638 17.9669 13.5338C18.6669 13.5408 19.3595 13.3927 19.9924 13.1005C20.6253 12.8084 21.1821 12.3798 21.6208 11.8471Z" fill="black"/>
<path d="M38.8381 14.5H36.7191V7.95455H38.9052C39.5465 7.95455 40.0973 8.08558 40.5575 8.34766C41.0178 8.6076 41.3704 8.98153 41.6154 9.46946C41.8626 9.95526 41.9862 10.538 41.9862 11.2177C41.9862 11.8995 41.8615 12.4854 41.6122 12.9755C41.3651 13.4656 41.0071 13.8427 40.5384 14.1069C40.0696 14.369 39.5028 14.5 38.8381 14.5ZM37.7067 13.6371H38.7837C39.2823 13.6371 39.6967 13.5433 40.027 13.3558C40.3572 13.1662 40.6044 12.8924 40.7685 12.5344C40.9325 12.1744 41.0146 11.7354 41.0146 11.2177C41.0146 10.7042 40.9325 10.2685 40.7685 9.91051C40.6065 9.55256 40.3647 9.28089 40.043 9.09553C39.7212 8.91016 39.3217 8.81747 38.8445 8.81747H37.7067V13.6371ZM43.1375 14.5V9.59091H44.0931V14.5H43.1375ZM43.6201 8.83345C43.4539 8.83345 43.3112 8.77805 43.1919 8.66726C43.0747 8.55433 43.0161 8.4201 43.0161 8.26456C43.0161 8.10689 43.0747 7.97266 43.1919 7.86186C43.3112 7.74893 43.4539 7.69247 43.6201 7.69247C43.7863 7.69247 43.928 7.74893 44.0452 7.86186C44.1645 7.97266 44.2242 8.10689 44.2242 8.26456C44.2242 8.4201 44.1645 8.55433 44.0452 8.66726C43.928 8.77805 43.7863 8.83345 43.6201 8.83345ZM49.0574 10.7894L48.1912 10.9428C48.155 10.832 48.0975 10.7266 48.0186 10.6264C47.9419 10.5263 47.8375 10.4442 47.7054 10.3803C47.5733 10.3164 47.4082 10.2844 47.21 10.2844C46.9395 10.2844 46.7136 10.3452 46.5325 10.4666C46.3514 10.5859 46.2608 10.7404 46.2608 10.93C46.2608 11.0941 46.3216 11.2262 46.443 11.3263C46.5645 11.4265 46.7605 11.5085 47.0311 11.5724L47.8109 11.7514C48.2626 11.8558 48.5993 12.0167 48.8208 12.234C49.0424 12.4513 49.1532 12.7337 49.1532 13.081C49.1532 13.375 49.068 13.6371 48.8975 13.8672C48.7292 14.0952 48.4938 14.2741 48.1912 14.4041C47.8908 14.5341 47.5424 14.5991 47.1461 14.5991C46.5964 14.5991 46.1479 14.4819 45.8006 14.2475C45.4533 14.011 45.2402 13.6754 45.1614 13.2408L46.085 13.1001C46.1426 13.3409 46.2608 13.5231 46.4398 13.6467C46.6188 13.7681 46.8521 13.8288 47.1397 13.8288C47.4529 13.8288 47.7033 13.7638 47.8908 13.6339C48.0783 13.5018 48.1721 13.3409 48.1721 13.1513C48.1721 12.9979 48.1145 12.869 47.9995 12.7646C47.8865 12.6602 47.7129 12.5813 47.4785 12.5281L46.6475 12.3459C46.1895 12.2415 45.8507 12.0753 45.6312 11.8473C45.4139 11.6193 45.3052 11.3306 45.3052 10.9812C45.3052 10.6914 45.3862 10.4379 45.5481 10.2205C45.71 10.0032 45.9338 9.83381 46.2193 9.71236C46.5048 9.58878 46.8319 9.52699 47.2005 9.52699C47.731 9.52699 48.1486 9.64205 48.4533 9.87216C48.758 10.1001 48.9593 10.4059 49.0574 10.7894ZM50.2039 16.3409V9.59091H51.1372V10.3867H51.2171C51.2725 10.2844 51.3524 10.1662 51.4568 10.032C51.5612 9.89773 51.7061 9.78054 51.8914 9.6804C52.0768 9.57812 52.3218 9.52699 52.6265 9.52699C53.0228 9.52699 53.3765 9.62713 53.6876 9.82741C53.9987 10.0277 54.2426 10.3164 54.4195 10.6935C54.5985 11.0707 54.6879 11.5245 54.6879 12.055C54.6879 12.5856 54.5995 13.0405 54.4227 13.4197C54.2458 13.7969 54.0029 14.0877 53.694 14.2923C53.385 14.4947 53.0324 14.5959 52.6361 14.5959C52.3378 14.5959 52.0938 14.5458 51.9042 14.4457C51.7167 14.3455 51.5697 14.2283 51.4632 14.0941C51.3566 13.9599 51.2746 13.8406 51.2171 13.7362H51.1595V16.3409H50.2039ZM51.1404 12.0455C51.1404 12.3906 51.1904 12.6932 51.2906 12.9531C51.3907 13.2131 51.5356 13.4165 51.7252 13.5636C51.9149 13.7085 52.1471 13.7809 52.422 13.7809C52.7075 13.7809 52.9461 13.7053 53.1379 13.554C53.3296 13.4006 53.4745 13.1928 53.5725 12.9308C53.6727 12.6687 53.7227 12.3736 53.7227 12.0455C53.7227 11.7216 53.6737 11.4308 53.5757 11.1729C53.4798 10.9151 53.335 10.7116 53.1411 10.5625C52.9493 10.4134 52.7096 10.3388 52.422 10.3388C52.145 10.3388 51.9106 10.4102 51.7188 10.5529C51.5292 10.6957 51.3854 10.8949 51.2874 11.1506C51.1894 11.4062 51.1404 11.7045 51.1404 12.0455ZM57.8264 14.5991C57.3662 14.5991 56.9646 14.4936 56.6215 14.2827C56.2785 14.0717 56.0122 13.7766 55.8225 13.3974C55.6329 13.0181 55.5381 12.5749 55.5381 12.0678C55.5381 11.5586 55.6329 11.1133 55.8225 10.7319C56.0122 10.3505 56.2785 10.0543 56.6215 9.84339C56.9646 9.63246 57.3662 9.52699 57.8264 9.52699C58.2867 9.52699 58.6883 9.63246 59.0313 9.84339C59.3744 10.0543 59.6407 10.3505 59.8303 10.7319C60.02 11.1133 60.1148 11.5586 60.1148 12.0678C60.1148 12.5749 60.02 13.0181 59.8303 13.3974C59.6407 13.7766 59.3744 14.0717 59.0313 14.2827C58.6883 14.4936 58.2867 14.5991 57.8264 14.5991ZM57.8296 13.7969C58.1279 13.7969 58.3751 13.718 58.5711 13.5604C58.7671 13.4027 58.912 13.1928 59.0058 12.9308C59.1017 12.6687 59.1496 12.38 59.1496 12.0646C59.1496 11.7514 59.1017 11.4638 59.0058 11.2017C58.912 10.9375 58.7671 10.7255 58.5711 10.5657C58.3751 10.4059 58.1279 10.326 57.8296 10.326C57.5292 10.326 57.2799 10.4059 57.0818 10.5657C56.8857 10.7255 56.7398 10.9375 56.6439 11.2017C56.5502 11.4638 56.5033 11.7514 56.5033 12.0646C56.5033 12.38 56.5502 12.6687 56.6439 12.9308C56.7398 13.1928 56.8857 13.4027 57.0818 13.5604C57.2799 13.718 57.5292 13.7969 57.8296 13.7969ZM62.1371 11.5852V14.5H61.1815V9.59091H62.0987V10.3899H62.1594C62.2724 10.13 62.4492 9.92116 62.69 9.76349C62.9329 9.60582 63.2386 9.52699 63.6072 9.52699C63.9418 9.52699 64.2347 9.5973 64.4862 9.73793C64.7376 9.87642 64.9325 10.0831 65.071 10.358C65.2095 10.6328 65.2788 10.9727 65.2788 11.3775V14.5H64.3232V11.4925C64.3232 11.1367 64.2305 10.8587 64.0451 10.6584C63.8597 10.456 63.6051 10.3548 63.2812 10.3548C63.0597 10.3548 62.8626 10.4027 62.69 10.4986C62.5195 10.5945 62.3842 10.7351 62.2841 10.9205C62.1861 11.1037 62.1371 11.3253 62.1371 11.5852ZM66.5604 14.5V9.59091H67.516V14.5H66.5604ZM67.043 8.83345C66.8768 8.83345 66.734 8.77805 66.6147 8.66726C66.4975 8.55433 66.4389 8.4201 66.4389 8.26456C66.4389 8.10689 66.4975 7.97266 66.6147 7.86186C66.734 7.74893 66.8768 7.69247 67.043 7.69247C67.2092 7.69247 67.3509 7.74893 67.468 7.86186C67.5874 7.97266 67.647 8.10689 67.647 8.26456C67.647 8.4201 67.5874 8.55433 67.468 8.66726C67.3509 8.77805 67.2092 8.83345 67.043 8.83345ZM68.8783 14.5V7.95455H69.8339V10.3867H69.8914C69.9468 10.2844 70.0267 10.1662 70.1311 10.032C70.2355 9.89773 70.3804 9.78054 70.5658 9.6804C70.7512 9.57812 70.9962 9.52699 71.3009 9.52699C71.6972 9.52699 72.0509 9.62713 72.3619 9.82741C72.673 10.0277 72.917 10.3164 73.0938 10.6935C73.2728 11.0707 73.3623 11.5245 73.3623 12.055C73.3623 12.5856 73.2739 13.0405 73.097 13.4197C72.9202 13.7969 72.6773 14.0877 72.3683 14.2923C72.0594 14.4947 71.7068 14.5959 71.3105 14.5959C71.0122 14.5959 70.7682 14.5458 70.5786 14.4457C70.3911 14.3455 70.2441 14.2283 70.1375 14.0941C70.031 13.9599 69.949 13.8406 69.8914 13.7362H69.8115V14.5H68.8783ZM69.8147 12.0455C69.8147 12.3906 69.8648 12.6932 69.9649 12.9531C70.0651 13.2131 70.21 13.4165 70.3996 13.5636C70.5892 13.7085 70.8215 13.7809 71.0963 13.7809C71.3818 13.7809 71.6205 13.7053 71.8122 13.554C72.004 13.4006 72.1489 13.1928 72.2469 12.9308C72.347 12.6687 72.3971 12.3736 72.3971 12.0455C72.3971 11.7216 72.3481 11.4308 72.2501 11.1729C72.1542 10.9151 72.0093 10.7116 71.8154 10.5625C71.6237 10.4134 71.384 10.3388 71.0963 10.3388C70.8193 10.3388 70.585 10.4102 70.3932 10.5529C70.2036 10.6957 70.0597 10.8949 69.9617 11.1506C69.8637 11.4062 69.8147 11.7045 69.8147 12.0455ZM75.391 7.95455V14.5H74.4354V7.95455H75.391ZM78.7923 14.5991C78.3087 14.5991 77.8921 14.4957 77.5427 14.2891C77.1954 14.0803 76.9269 13.7873 76.7373 13.4102C76.5498 13.0309 76.4561 12.5866 76.4561 12.0774C76.4561 11.5746 76.5498 11.1314 76.7373 10.7479C76.9269 10.3643 77.1911 10.065 77.5299 9.84979C77.8708 9.63459 78.2693 9.52699 78.7252 9.52699C79.0022 9.52699 79.2707 9.5728 79.5306 9.66442C79.7906 9.75604 80.0239 9.89986 80.2306 10.0959C80.4372 10.2919 80.6002 10.5465 80.7195 10.8597C80.8389 11.1708 80.8985 11.549 80.8985 11.9943V12.3331H76.9962V11.6172H79.9621C79.9621 11.3658 79.911 11.1431 79.8087 10.9492C79.7064 10.7532 79.5626 10.5987 79.3772 10.4858C79.194 10.3729 78.9788 10.3164 78.7316 10.3164C78.4632 10.3164 78.2288 10.3825 78.0285 10.5146C77.8303 10.6445 77.6769 10.815 77.5683 11.0259C77.4617 11.2347 77.4085 11.4616 77.4085 11.7067V12.266C77.4085 12.5941 77.466 12.8732 77.5811 13.1033C77.6982 13.3335 77.8612 13.5092 78.07 13.6307C78.2789 13.75 78.5228 13.8097 78.8019 13.8097C78.983 13.8097 79.1482 13.7841 79.2973 13.733C79.4465 13.6797 79.5754 13.6009 79.684 13.4964C79.7927 13.392 79.8758 13.2631 79.9333 13.1097L80.8378 13.2727C80.7654 13.5391 80.6354 13.7724 80.4479 13.9727C80.2625 14.1708 80.0292 14.3253 79.748 14.4361C79.4688 14.5447 79.1503 14.5991 78.7923 14.5991ZM86.4564 14.5991C85.9727 14.5991 85.5562 14.4957 85.2068 14.2891C84.8595 14.0803 84.591 13.7873 84.4014 13.4102C84.2139 13.0309 84.1201 12.5866 84.1201 12.0774C84.1201 11.5746 84.2139 11.1314 84.4014 10.7479C84.591 10.3643 84.8552 10.065 85.194 9.84979C85.5349 9.63459 85.9333 9.52699 86.3893 9.52699C86.6663 9.52699 86.9347 9.5728 87.1947 9.66442C87.4546 9.75604 87.6879 9.89986 87.8946 10.0959C88.1013 10.2919 88.2643 10.5465 88.3836 10.8597C88.5029 11.1708 88.5626 11.549 88.5626 11.9943V12.3331H84.6602V11.6172H87.6262C87.6262 11.3658 87.575 11.1431 87.4727 10.9492C87.3705 10.7532 87.2267 10.5987 87.0413 10.4858C86.858 10.3729 86.6428 10.3164 86.3957 10.3164C86.1272 10.3164 85.8928 10.3825 85.6926 10.5146C85.4944 10.6445 85.341 10.815 85.2323 11.0259C85.1258 11.2347 85.0725 11.4616 85.0725 11.7067V12.266C85.0725 12.5941 85.1301 12.8732 85.2451 13.1033C85.3623 13.3335 85.5253 13.5092 85.7341 13.6307C85.9429 13.75 86.1869 13.8097 86.466 13.8097C86.6471 13.8097 86.8122 13.7841 86.9614 13.733C87.1105 13.6797 87.2394 13.6009 87.3481 13.4964C87.4568 13.392 87.5399 13.2631 87.5974 13.1097L88.5019 13.2727C88.4294 13.5391 88.2994 13.7724 88.1119 13.9727C87.9266 14.1708 87.6933 14.3253 87.412 14.4361C87.1329 14.5447 86.8144 14.5991 86.4564 14.5991ZM90.5785 11.5852V14.5H89.6229V9.59091H90.5401V10.3899H90.6009C90.7138 10.13 90.8906 9.92116 91.1314 9.76349C91.3743 9.60582 91.68 9.52699 92.0487 9.52699C92.3832 9.52699 92.6761 9.5973 92.9276 9.73793C93.179 9.87642 93.3739 10.0831 93.5124 10.358C93.6509 10.6328 93.7202 10.9727 93.7202 11.3775V14.5H92.7646V11.4925C92.7646 11.1367 92.6719 10.8587 92.4865 10.6584C92.3011 10.456 92.0465 10.3548 91.7227 10.3548C91.5011 10.3548 91.304 10.4027 91.1314 10.4986C90.9609 10.5945 90.8256 10.7351 90.7255 10.9205C90.6275 11.1037 90.5785 11.3253 90.5785 11.5852Z" fill="black"/>
<path d="M38.2061 30.5H36.1758L40.3066 18.5029H42.5391L46.6611 30.5H44.5518L43.4883 27.1777H39.2783L38.2061 30.5ZM41.4316 20.5771H41.3525L39.7266 25.6484H43.04L41.4316 20.5771ZM52.2644 30.6318C51.0603 30.6318 50.1462 30.0605 49.654 29.208H49.5837V33.585H47.6325V21.21H49.531V22.5723H49.6013C50.1111 21.6846 51.0603 21.0869 52.3083 21.0869C54.3913 21.0869 55.8767 22.6602 55.8767 25.4375V26.2637C55.8767 29.0234 54.4089 30.6318 52.2644 30.6318ZM51.8161 29.0234C53.0554 29.0234 53.8991 28.0303 53.8991 26.1582V25.5078C53.8991 23.7061 53.1081 22.6777 51.781 22.6777C50.4187 22.6777 49.5661 23.7852 49.5661 25.499V26.1582C49.5661 27.916 50.4275 29.0234 51.8161 29.0234ZM62.183 30.6318C60.9789 30.6318 60.0649 30.0605 59.5727 29.208H59.5024V33.585H57.5512V21.21H59.4496V22.5723H59.52C60.0297 21.6846 60.9789 21.0869 62.227 21.0869C64.31 21.0869 65.7954 22.6602 65.7954 25.4375V26.2637C65.7954 29.0234 64.3276 30.6318 62.183 30.6318ZM61.7348 29.0234C62.9741 29.0234 63.8178 28.0303 63.8178 26.1582V25.5078C63.8178 23.7061 63.0268 22.6777 61.6996 22.6777C60.3373 22.6777 59.4848 23.7852 59.4848 25.499V26.1582C59.4848 27.916 60.3461 29.0234 61.7348 29.0234ZM69.8387 27.1689H71.7899C71.8778 28.2061 72.7919 29.0938 74.4882 29.0938C76.0438 29.0938 76.9667 28.3643 76.9667 27.2305C76.9667 26.3164 76.3514 25.8242 75.0682 25.5166L73.0995 25.0244C71.5526 24.6641 70.1639 23.7412 70.1639 21.79C70.1639 19.4961 72.1679 18.2393 74.497 18.2393C76.8261 18.2393 78.7684 19.4961 78.8124 21.7373H76.8964C76.8085 20.7178 76.0262 19.874 74.4706 19.874C73.0995 19.874 72.1679 20.5244 72.1679 21.6406C72.1679 22.4229 72.7128 22.9854 73.829 23.2402L75.7889 23.7236C77.5907 24.1631 78.9618 25.0156 78.9618 27.0547C78.9618 29.4102 77.0546 30.7373 74.3387 30.7373C70.9989 30.7373 69.8827 28.7861 69.8387 27.1689ZM81.3395 21.21V18.9512H83.2555V21.21H85.066V22.7744H83.2555V27.7314C83.2555 28.7422 83.6334 29.0234 84.6793 29.0234C84.8463 29.0234 85.0045 29.0234 85.1188 29.0059V30.5C84.9605 30.5264 84.5914 30.5615 84.1959 30.5615C81.9371 30.5615 81.3131 29.7529 81.3131 27.8896V22.7744H80.0299V21.21H81.3395ZM90.3353 21.0518C93.0071 21.0518 94.4573 22.9326 94.4573 25.4639V26.2109C94.4573 28.8301 93.0159 30.6582 90.3353 30.6582C87.6546 30.6582 86.1956 28.8301 86.1956 26.2109V25.4639C86.1956 22.9414 87.6634 21.0518 90.3353 21.0518ZM90.3353 22.6162C88.8851 22.6162 88.1644 23.8027 88.1644 25.4902V26.2021C88.1644 27.8633 88.8763 29.085 90.3353 29.085C91.7943 29.085 92.4974 27.8721 92.4974 26.2021V25.4902C92.4974 23.7939 91.7855 22.6162 90.3353 22.6162ZM96.1055 30.5V21.21H98.0567V22.4316H98.127C98.3643 21.8516 99.0586 21.0781 100.351 21.0781C100.606 21.0781 100.825 21.0957 101.01 21.1309V22.8535C100.843 22.8096 100.5 22.7832 100.175 22.7832C98.6104 22.7832 98.083 23.75 98.083 24.998V30.5H96.1055ZM105.743 30.6582C103.256 30.6582 101.674 29.0146 101.674 26.2637V25.3232C101.674 22.7305 103.22 21.0518 105.664 21.0518C108.142 21.0518 109.636 22.792 109.636 25.4111V26.2988H103.598V26.5186C103.598 28.083 104.442 29.1201 105.769 29.1201C106.762 29.1201 107.439 28.6279 107.677 27.8281H109.531C109.25 29.3311 108.037 30.6582 105.743 30.6582ZM103.598 24.9365H107.729V24.9189C107.729 23.6006 106.912 22.5635 105.673 22.5635C104.416 22.5635 103.598 23.6006 103.598 24.9189V24.9365Z" fill="black"/>
</svg>
