<svg width="120" height="40" viewBox="0 0 120 40" fill="none" xmlns="http://www.w3.org/2000/svg">
<rect width="120" height="40" rx="6" fill="white"/>
<path d="M17.8048 19.4617L8.0896 30.0059C8.09051 30.0078 8.09051 30.0106 8.09142 30.0125C8.38981 31.1574 9.41179 32 10.6254 32C11.1108 32 11.5662 31.8656 11.9567 31.6305L11.9877 31.6118L22.9229 25.1593L17.8048 19.4617Z" fill="#EA4335"/>
<path d="M27.6332 17.6662L27.624 17.6597L22.9029 14.8612L17.584 19.7013L22.922 25.1582L27.6177 22.3878C28.4407 21.9324 29.0001 21.045 29.0001 20.0223C29.0001 19.0052 28.4489 18.1225 27.6332 17.6662Z" fill="#FBBC04"/>
<path d="M8.08942 9.99325C8.03102 10.2135 8 10.4449 8 10.6838V29.3163C8 29.5552 8.03102 29.7866 8.09034 30.0059L18.1386 19.7313L8.08942 9.99325Z" fill="#4285F4"/>
<path d="M17.8767 20L22.9044 14.8594L11.982 8.3836C11.5851 8.14005 11.1215 8.00009 10.6261 8.00009C9.41246 8.00009 8.38865 8.84456 8.09027 9.99043C8.09027 9.99136 8.08936 9.9923 8.08936 9.99323L17.8767 20Z" fill="#34A853"/>
<path d="M38.8381 14.5H36.7191V7.95455H38.9052C39.5465 7.95455 40.0973 8.08558 40.5575 8.34766C41.0178 8.6076 41.3704 8.98153 41.6154 9.46946C41.8626 9.95526 41.9862 10.538 41.9862 11.2177C41.9862 11.8995 41.8615 12.4854 41.6122 12.9755C41.3651 13.4656 41.0071 13.8427 40.5384 14.1069C40.0696 14.369 39.5028 14.5 38.8381 14.5ZM37.7067 13.6371H38.7837C39.2823 13.6371 39.6967 13.5433 40.027 13.3558C40.3572 13.1662 40.6044 12.8924 40.7685 12.5344C40.9325 12.1744 41.0146 11.7354 41.0146 11.2177C41.0146 10.7042 40.9325 10.2685 40.7685 9.91051C40.6065 9.55256 40.3647 9.28089 40.043 9.09553C39.7212 8.91016 39.3217 8.81747 38.8445 8.81747H37.7067V13.6371ZM43.1375 14.5V9.59091H44.0931V14.5H43.1375ZM43.6201 8.83345C43.4539 8.83345 43.3112 8.77805 43.1919 8.66726C43.0747 8.55433 43.0161 8.4201 43.0161 8.26456C43.0161 8.10689 43.0747 7.97266 43.1919 7.86186C43.3112 7.74893 43.4539 7.69247 43.6201 7.69247C43.7863 7.69247 43.928 7.74893 44.0452 7.86186C44.1645 7.97266 44.2242 8.10689 44.2242 8.26456C44.2242 8.4201 44.1645 8.55433 44.0452 8.66726C43.928 8.77805 43.7863 8.83345 43.6201 8.83345ZM49.0574 10.7894L48.1912 10.9428C48.155 10.832 48.0975 10.7266 48.0186 10.6264C47.9419 10.5263 47.8375 10.4442 47.7054 10.3803C47.5733 10.3164 47.4082 10.2844 47.21 10.2844C46.9395 10.2844 46.7136 10.3452 46.5325 10.4666C46.3514 10.5859 46.2608 10.7404 46.2608 10.93C46.2608 11.0941 46.3216 11.2262 46.443 11.3263C46.5645 11.4265 46.7605 11.5085 47.0311 11.5724L47.8109 11.7514C48.2626 11.8558 48.5993 12.0167 48.8208 12.234C49.0424 12.4513 49.1532 12.7337 49.1532 13.081C49.1532 13.375 49.068 13.6371 48.8975 13.8672C48.7292 14.0952 48.4938 14.2741 48.1912 14.4041C47.8908 14.5341 47.5424 14.5991 47.1461 14.5991C46.5964 14.5991 46.1479 14.4819 45.8006 14.2475C45.4533 14.011 45.2402 13.6754 45.1614 13.2408L46.085 13.1001C46.1426 13.3409 46.2608 13.5231 46.4398 13.6467C46.6188 13.7681 46.8521 13.8288 47.1397 13.8288C47.4529 13.8288 47.7033 13.7638 47.8908 13.6339C48.0783 13.5018 48.1721 13.3409 48.1721 13.1513C48.1721 12.9979 48.1145 12.869 47.9995 12.7646C47.8865 12.6602 47.7129 12.5813 47.4785 12.5281L46.6475 12.3459C46.1895 12.2415 45.8507 12.0753 45.6312 11.8473C45.4139 11.6193 45.3052 11.3306 45.3052 10.9812C45.3052 10.6914 45.3862 10.4379 45.5481 10.2205C45.71 10.0032 45.9338 9.83381 46.2193 9.71236C46.5048 9.58878 46.8319 9.52699 47.2005 9.52699C47.731 9.52699 48.1486 9.64205 48.4533 9.87216C48.758 10.1001 48.9593 10.4059 49.0574 10.7894ZM50.2039 16.3409V9.59091H51.1372V10.3867H51.2171C51.2725 10.2844 51.3524 10.1662 51.4568 10.032C51.5612 9.89773 51.7061 9.78054 51.8914 9.6804C52.0768 9.57812 52.3218 9.52699 52.6265 9.52699C53.0228 9.52699 53.3765 9.62713 53.6876 9.82741C53.9987 10.0277 54.2426 10.3164 54.4195 10.6935C54.5985 11.0707 54.6879 11.5245 54.6879 12.055C54.6879 12.5856 54.5995 13.0405 54.4227 13.4197C54.2458 13.7969 54.0029 14.0877 53.694 14.2923C53.385 14.4947 53.0324 14.5959 52.6361 14.5959C52.3378 14.5959 52.0938 14.5458 51.9042 14.4457C51.7167 14.3455 51.5697 14.2283 51.4632 14.0941C51.3566 13.9599 51.2746 13.8406 51.2171 13.7362H51.1595V16.3409H50.2039ZM51.1404 12.0455C51.1404 12.3906 51.1904 12.6932 51.2906 12.9531C51.3907 13.2131 51.5356 13.4165 51.7252 13.5636C51.9149 13.7085 52.1471 13.7809 52.422 13.7809C52.7075 13.7809 52.9461 13.7053 53.1379 13.554C53.3296 13.4006 53.4745 13.1928 53.5725 12.9308C53.6727 12.6687 53.7227 12.3736 53.7227 12.0455C53.7227 11.7216 53.6737 11.4308 53.5757 11.1729C53.4798 10.9151 53.335 10.7116 53.1411 10.5625C52.9493 10.4134 52.7096 10.3388 52.422 10.3388C52.145 10.3388 51.9106 10.4102 51.7188 10.5529C51.5292 10.6957 51.3854 10.8949 51.2874 11.1506C51.1894 11.4062 51.1404 11.7045 51.1404 12.0455ZM57.8264 14.5991C57.3662 14.5991 56.9646 14.4936 56.6215 14.2827C56.2785 14.0717 56.0122 13.7766 55.8225 13.3974C55.6329 13.0181 55.5381 12.5749 55.5381 12.0678C55.5381 11.5586 55.6329 11.1133 55.8225 10.7319C56.0122 10.3505 56.2785 10.0543 56.6215 9.84339C56.9646 9.63246 57.3662 9.52699 57.8264 9.52699C58.2867 9.52699 58.6883 9.63246 59.0313 9.84339C59.3744 10.0543 59.6407 10.3505 59.8303 10.7319C60.02 11.1133 60.1148 11.5586 60.1148 12.0678C60.1148 12.5749 60.02 13.0181 59.8303 13.3974C59.6407 13.7766 59.3744 14.0717 59.0313 14.2827C58.6883 14.4936 58.2867 14.5991 57.8264 14.5991ZM57.8296 13.7969C58.1279 13.7969 58.3751 13.718 58.5711 13.5604C58.7671 13.4027 58.912 13.1928 59.0058 12.9308C59.1017 12.6687 59.1496 12.38 59.1496 12.0646C59.1496 11.7514 59.1017 11.4638 59.0058 11.2017C58.912 10.9375 58.7671 10.7255 58.5711 10.5657C58.3751 10.4059 58.1279 10.326 57.8296 10.326C57.5292 10.326 57.2799 10.4059 57.0818 10.5657C56.8857 10.7255 56.7398 10.9375 56.6439 11.2017C56.5502 11.4638 56.5033 11.7514 56.5033 12.0646C56.5033 12.38 56.5502 12.6687 56.6439 12.9308C56.7398 13.1928 56.8857 13.4027 57.0818 13.5604C57.2799 13.718 57.5292 13.7969 57.8296 13.7969ZM62.1371 11.5852V14.5H61.1815V9.59091H62.0987V10.3899H62.1594C62.2724 10.13 62.4492 9.92116 62.69 9.76349C62.9329 9.60582 63.2386 9.52699 63.6072 9.52699C63.9418 9.52699 64.2347 9.5973 64.4862 9.73793C64.7376 9.87642 64.9325 10.0831 65.071 10.358C65.2095 10.6328 65.2788 10.9727 65.2788 11.3775V14.5H64.3232V11.4925C64.3232 11.1367 64.2305 10.8587 64.0451 10.6584C63.8597 10.456 63.6051 10.3548 63.2812 10.3548C63.0597 10.3548 62.8626 10.4027 62.69 10.4986C62.5195 10.5945 62.3842 10.7351 62.2841 10.9205C62.1861 11.1037 62.1371 11.3253 62.1371 11.5852ZM66.5604 14.5V9.59091H67.516V14.5H66.5604ZM67.043 8.83345C66.8768 8.83345 66.734 8.77805 66.6147 8.66726C66.4975 8.55433 66.4389 8.4201 66.4389 8.26456C66.4389 8.10689 66.4975 7.97266 66.6147 7.86186C66.734 7.74893 66.8768 7.69247 67.043 7.69247C67.2092 7.69247 67.3509 7.74893 67.468 7.86186C67.5874 7.97266 67.647 8.10689 67.647 8.26456C67.647 8.4201 67.5874 8.55433 67.468 8.66726C67.3509 8.77805 67.2092 8.83345 67.043 8.83345ZM68.8783 14.5V7.95455H69.8339V10.3867H69.8914C69.9468 10.2844 70.0267 10.1662 70.1311 10.032C70.2355 9.89773 70.3804 9.78054 70.5658 9.6804C70.7512 9.57812 70.9962 9.52699 71.3009 9.52699C71.6972 9.52699 72.0509 9.62713 72.3619 9.82741C72.673 10.0277 72.917 10.3164 73.0938 10.6935C73.2728 11.0707 73.3623 11.5245 73.3623 12.055C73.3623 12.5856 73.2739 13.0405 73.097 13.4197C72.9202 13.7969 72.6773 14.0877 72.3683 14.2923C72.0594 14.4947 71.7068 14.5959 71.3105 14.5959C71.0122 14.5959 70.7682 14.5458 70.5786 14.4457C70.3911 14.3455 70.2441 14.2283 70.1375 14.0941C70.031 13.9599 69.949 13.8406 69.8914 13.7362H69.8115V14.5H68.8783ZM69.8147 12.0455C69.8147 12.3906 69.8648 12.6932 69.9649 12.9531C70.0651 13.2131 70.21 13.4165 70.3996 13.5636C70.5892 13.7085 70.8215 13.7809 71.0963 13.7809C71.3818 13.7809 71.6205 13.7053 71.8122 13.554C72.004 13.4006 72.1489 13.1928 72.2469 12.9308C72.347 12.6687 72.3971 12.3736 72.3971 12.0455C72.3971 11.7216 72.3481 11.4308 72.2501 11.1729C72.1542 10.9151 72.0093 10.7116 71.8154 10.5625C71.6237 10.4134 71.384 10.3388 71.0963 10.3388C70.8193 10.3388 70.585 10.4102 70.3932 10.5529C70.2036 10.6957 70.0597 10.8949 69.9617 11.1506C69.8637 11.4062 69.8147 11.7045 69.8147 12.0455ZM75.391 7.95455V14.5H74.4354V7.95455H75.391ZM78.7923 14.5991C78.3087 14.5991 77.8921 14.4957 77.5427 14.2891C77.1954 14.0803 76.9269 13.7873 76.7373 13.4102C76.5498 13.0309 76.4561 12.5866 76.4561 12.0774C76.4561 11.5746 76.5498 11.1314 76.7373 10.7479C76.9269 10.3643 77.1911 10.065 77.5299 9.84979C77.8708 9.63459 78.2693 9.52699 78.7252 9.52699C79.0022 9.52699 79.2707 9.5728 79.5306 9.66442C79.7906 9.75604 80.0239 9.89986 80.2306 10.0959C80.4372 10.2919 80.6002 10.5465 80.7195 10.8597C80.8389 11.1708 80.8985 11.549 80.8985 11.9943V12.3331H76.9962V11.6172H79.9621C79.9621 11.3658 79.911 11.1431 79.8087 10.9492C79.7064 10.7532 79.5626 10.5987 79.3772 10.4858C79.194 10.3729 78.9788 10.3164 78.7316 10.3164C78.4632 10.3164 78.2288 10.3825 78.0285 10.5146C77.8303 10.6445 77.6769 10.815 77.5683 11.0259C77.4617 11.2347 77.4085 11.4616 77.4085 11.7067V12.266C77.4085 12.5941 77.466 12.8732 77.5811 13.1033C77.6982 13.3335 77.8612 13.5092 78.07 13.6307C78.2789 13.75 78.5228 13.8097 78.8019 13.8097C78.983 13.8097 79.1482 13.7841 79.2973 13.733C79.4465 13.6797 79.5754 13.6009 79.684 13.4964C79.7927 13.392 79.8758 13.2631 79.9333 13.1097L80.8378 13.2727C80.7654 13.5391 80.6354 13.7724 80.4479 13.9727C80.2625 14.1708 80.0292 14.3253 79.748 14.4361C79.4688 14.5447 79.1503 14.5991 78.7923 14.5991ZM86.4564 14.5991C85.9727 14.5991 85.5562 14.4957 85.2068 14.2891C84.8595 14.0803 84.591 13.7873 84.4014 13.4102C84.2139 13.0309 84.1201 12.5866 84.1201 12.0774C84.1201 11.5746 84.2139 11.1314 84.4014 10.7479C84.591 10.3643 84.8552 10.065 85.194 9.84979C85.5349 9.63459 85.9333 9.52699 86.3893 9.52699C86.6663 9.52699 86.9347 9.5728 87.1947 9.66442C87.4546 9.75604 87.6879 9.89986 87.8946 10.0959C88.1013 10.2919 88.2643 10.5465 88.3836 10.8597C88.5029 11.1708 88.5626 11.549 88.5626 11.9943V12.3331H84.6602V11.6172H87.6262C87.6262 11.3658 87.575 11.1431 87.4727 10.9492C87.3705 10.7532 87.2267 10.5987 87.0413 10.4858C86.858 10.3729 86.6428 10.3164 86.3957 10.3164C86.1272 10.3164 85.8928 10.3825 85.6926 10.5146C85.4944 10.6445 85.341 10.815 85.2323 11.0259C85.1258 11.2347 85.0725 11.4616 85.0725 11.7067V12.266C85.0725 12.5941 85.1301 12.8732 85.2451 13.1033C85.3623 13.3335 85.5253 13.5092 85.7341 13.6307C85.9429 13.75 86.1869 13.8097 86.466 13.8097C86.6471 13.8097 86.8122 13.7841 86.9614 13.733C87.1105 13.6797 87.2394 13.6009 87.3481 13.4964C87.4568 13.392 87.5399 13.2631 87.5974 13.1097L88.5019 13.2727C88.4294 13.5391 88.2994 13.7724 88.1119 13.9727C87.9266 14.1708 87.6933 14.3253 87.412 14.4361C87.1329 14.5447 86.8144 14.5991 86.4564 14.5991ZM90.5785 11.5852V14.5H89.6229V9.59091H90.5401V10.3899H90.6009C90.7138 10.13 90.8906 9.92116 91.1314 9.76349C91.3743 9.60582 91.68 9.52699 92.0487 9.52699C92.3832 9.52699 92.6761 9.5973 92.9276 9.73793C93.179 9.87642 93.3739 10.0831 93.5124 10.358C93.6509 10.6328 93.7202 10.9727 93.7202 11.3775V14.5H92.7646V11.4925C92.7646 11.1367 92.6719 10.8587 92.4865 10.6584C92.3011 10.456 92.0465 10.3548 91.7227 10.3548C91.5011 10.3548 91.304 10.4027 91.1314 10.4986C90.9609 10.5945 90.8256 10.7351 90.7255 10.9205C90.6275 11.1037 90.5785 11.3253 90.5785 11.5852Z" fill="black"/>
<path d="M93.5181 30.9097H95.1469V19.8981H93.5181V30.9097ZM108.189 23.8646L106.322 28.6388H106.266L104.328 23.8646H102.573L105.479 30.5371L103.823 34.249H105.521L110 23.8646H108.189ZM98.9519 29.6588C98.4176 29.6588 97.6739 29.3902 97.6739 28.7234C97.6739 27.8742 98.6001 27.5483 99.4005 27.5483C100.116 27.5483 100.454 27.7042 100.889 27.9165C100.762 28.9365 99.892 29.6588 98.9519 29.6588ZM99.1483 23.6241C97.969 23.6241 96.7469 24.1482 96.2424 25.3101L97.6879 25.9188C97.9969 25.3101 98.5721 25.111 99.1762 25.111C100.019 25.111 100.875 25.621 100.889 26.5283V26.6411C100.594 26.471 99.9627 26.2165 99.1902 26.2165C97.632 26.2165 96.0451 27.0806 96.0451 28.6952C96.0451 30.1689 97.323 31.1184 98.7546 31.1184C99.8501 31.1184 100.454 30.6225 100.833 30.0411H100.889V30.8912H102.461V26.6692C102.461 24.7146 101.015 23.6241 99.1483 23.6241M89.0821 25.2053H86.7655V21.4308H89.0821C90.2998 21.4308 90.9911 22.4482 90.9911 23.3176C90.9911 24.1711 90.2998 25.2053 89.0821 25.2053ZM89.0402 19.8981H85.1375V30.9097H86.7655V26.7379H89.0402C90.8453 26.7379 92.6199 25.4184 92.6199 23.3176C92.6199 21.2168 90.8453 19.8981 89.0402 19.8981M67.7583 29.6606C66.6332 29.6606 65.6913 28.7102 65.6913 27.4047C65.6913 26.0852 66.6332 25.1198 67.7583 25.1198C68.8695 25.1198 69.7406 26.0852 69.7406 27.4047C69.7406 28.7102 68.8695 29.6606 67.7583 29.6606ZM69.6289 24.4812H69.5722C69.2064 24.0417 68.5038 23.6444 67.6178 23.6444C65.7611 23.6444 64.0599 25.2898 64.0599 27.4047C64.0599 29.5047 65.7611 31.1369 67.6178 31.1369C68.5038 31.1369 69.2064 30.7396 69.5722 30.2851H69.6289V30.8251C69.6289 32.2582 68.8695 33.0246 67.6457 33.0246C66.6471 33.0246 66.0282 32.3005 65.7751 31.6901L64.3549 32.2864C64.7626 33.28 65.8458 34.5 67.6457 34.5C69.5582 34.5 71.1757 33.3646 71.1757 30.5978V23.8708H69.6289V24.4812ZM72.3008 30.9097H73.9322V19.8973H72.3008V30.9097ZM76.3362 27.277C76.2943 25.8298 77.4474 25.0916 78.2766 25.0916C78.9243 25.0916 79.4725 25.4176 79.6549 25.8862L76.3362 27.277ZM81.3989 26.028C81.0899 25.1912 80.1472 23.6444 78.2208 23.6444C76.3083 23.6444 74.7196 25.1621 74.7196 27.3907C74.7196 29.4906 76.2943 31.1369 78.4032 31.1369C80.1053 31.1369 81.0899 30.0869 81.4976 29.4765L80.2319 28.6247C79.8103 29.2493 79.2333 29.6606 78.4032 29.6606C77.5739 29.6606 76.983 29.2774 76.6033 28.5261L81.5674 26.4534L81.3989 26.028ZM41.8501 24.7939V26.383H45.6184C45.5058 27.277 45.2107 27.9297 44.7612 28.3834C44.2121 28.9374 43.3541 29.5479 41.8501 29.5479C39.5291 29.5479 37.7152 27.6602 37.7152 25.3189C37.7152 22.9767 39.5291 21.0899 41.8501 21.0899C43.1018 21.0899 44.0157 21.5867 44.6905 22.2254L45.8017 21.104C44.8589 20.1959 43.6081 19.5 41.8501 19.5C38.6719 19.5 36 22.1117 36 25.3189C36 28.5261 38.6719 31.1369 41.8501 31.1369C43.5653 31.1369 44.8589 30.5688 45.8715 29.5047C46.9129 28.4547 47.2358 26.9793 47.2358 25.7866C47.2358 25.4176 47.2079 25.0775 47.1512 24.7939H41.8501ZM51.5208 29.6606C50.3957 29.6606 49.425 28.7243 49.425 27.3907C49.425 26.0421 50.3957 25.1198 51.5208 25.1198C52.6451 25.1198 53.6158 26.0421 53.6158 27.3907C53.6158 28.7243 52.6451 29.6606 51.5208 29.6606ZM51.5208 23.6444C49.4669 23.6444 47.7936 25.2194 47.7936 27.3907C47.7936 29.5479 49.4669 31.1369 51.5208 31.1369C53.5739 31.1369 55.2472 29.5479 55.2472 27.3907C55.2472 25.2194 53.5739 23.6444 51.5208 23.6444ZM59.65 29.6606C58.5249 29.6606 57.5542 28.7243 57.5542 27.3907C57.5542 26.0421 58.5249 25.1198 59.65 25.1198C60.7752 25.1198 61.745 26.0421 61.745 27.3907C61.745 28.7243 60.7752 29.6606 59.65 29.6606ZM59.65 23.6444C57.597 23.6444 55.9237 25.2194 55.9237 27.3907C55.9237 29.5479 57.597 31.1369 59.65 31.1369C61.7031 31.1369 63.3764 29.5479 63.3764 27.3907C63.3764 25.2194 61.7031 23.6444 59.65 23.6444Z" fill="black"/>
</svg>
