<svg width="30" height="30" viewBox="0 0 30 30" fill="none" xmlns="http://www.w3.org/2000/svg">
<path d="M27.6791 14.9999C27.678 15.6155 27.6377 16.2297 27.5577 16.8402C27.5717 16.7373 27.5854 16.6347 27.5991 16.5318C27.4359 17.7439 27.1143 18.9298 26.6414 20.058C26.6803 19.9656 26.7192 19.8733 26.7582 19.7809C26.2926 20.8817 25.6871 21.9181 24.9581 22.8652C25.0186 22.787 25.0789 22.7086 25.1394 22.6305C24.4123 23.5692 23.569 24.4124 22.6303 25.1395C22.7085 25.079 22.7869 25.0187 22.8651 24.9582C21.9179 25.6871 20.8816 26.2927 19.7807 26.7583C19.8731 26.7193 19.9654 26.6804 20.0578 26.6414C18.9296 27.1143 17.744 27.4359 16.5315 27.5991C16.6344 27.5852 16.7371 27.5715 16.84 27.5578C15.6188 27.7181 14.3806 27.7181 13.1595 27.5578C13.2624 27.5717 13.365 27.5854 13.4679 27.5991C12.2558 27.4359 11.0699 27.1143 9.94164 26.6414L10.2188 26.7583C9.1179 26.2927 8.08151 25.6872 7.13438 24.9582C7.21255 25.0187 7.29097 25.079 7.36914 25.1395C6.43037 24.4124 5.5872 23.5691 4.86005 22.6305C4.92058 22.7086 4.98085 22.787 5.04138 22.8652C4.3124 21.918 3.70679 20.8817 3.24125 19.7809C3.2802 19.8733 3.31915 19.9656 3.3581 20.058C2.88518 18.9298 2.56358 17.7442 2.4004 16.5318C2.41435 16.6347 2.42803 16.7373 2.44172 16.8402C2.28145 15.6191 2.28145 14.3809 2.44172 13.1598C2.42777 13.2627 2.41408 13.3653 2.4004 13.4682C2.56357 12.2561 2.88517 11.0702 3.3581 9.94201C3.31915 10.0344 3.2802 10.1268 3.24125 10.2191C3.70681 9.11828 4.31234 8.08191 5.04138 7.13481C4.98085 7.21297 4.92058 7.29139 4.86005 7.36955C5.5872 6.4308 6.43043 5.58765 7.36914 4.86051C7.29097 4.92104 7.21255 4.98131 7.13438 5.04184C8.08157 4.31288 9.1179 3.70728 10.2188 3.24174L9.94164 3.35859C11.0699 2.88568 12.2555 2.56408 13.4679 2.40091C13.365 2.41486 13.2624 2.42854 13.1595 2.44223C14.3806 2.28196 15.6188 2.28196 16.84 2.44223C16.7371 2.42828 16.6344 2.41459 16.5315 2.40091C17.7437 2.56408 18.9296 2.88567 20.0578 3.35859C19.9654 3.31964 19.8731 3.2807 19.7807 3.24174C20.8816 3.70729 21.9179 4.31281 22.8651 5.04184C22.7869 4.98131 22.7085 4.92104 22.6303 4.86051C23.5691 5.58765 24.4123 6.43087 25.1394 7.36955C25.0789 7.29139 25.0186 7.21297 24.9581 7.13481C25.687 8.08198 26.2927 9.11828 26.7582 10.2191C26.7193 10.1268 26.6803 10.0344 26.6414 9.94201C27.1143 11.0702 27.4359 12.2558 27.5991 13.4682C27.5851 13.3653 27.5714 13.2627 27.5577 13.1598C27.638 13.7698 27.6783 14.3843 27.6791 14.9998C27.6801 15.6067 28.212 16.1881 28.8391 16.1599C29.4668 16.1317 30.0002 15.6501 29.9992 14.9998C29.9942 11.9415 29.0531 8.87612 27.2727 6.38238C26.3493 5.08919 25.2631 3.97648 24.0023 3.01199C22.807 2.09777 21.4716 1.39562 20.0592 0.87929C17.1558 -0.181807 13.8833 -0.276262 10.9127 0.564801C8.03775 1.37851 5.39183 3.08045 3.49091 5.38946C2.99036 5.99738 2.52452 6.63529 2.11955 7.31089C1.71005 7.9941 1.37265 8.71066 1.07109 9.4473C0.485796 10.8758 0.158939 12.3963 0.0418454 13.9338C-0.191061 16.9897 0.566084 20.1249 2.1533 22.7453C3.69418 25.2891 6.01064 27.395 8.72582 28.6211C9.44927 28.9477 10.1909 29.2335 10.9557 29.4475C11.7523 29.6704 12.5653 29.8106 13.3864 29.9062C14.9517 30.088 16.5439 29.9933 18.0867 29.6788C21.0127 29.0825 23.7555 27.5439 25.8184 25.3891C27.8996 23.2151 29.3417 20.4002 29.7978 17.4191C29.9204 16.617 29.9978 15.8122 29.9991 15.0003C30.0002 14.3935 29.4649 13.8121 28.839 13.8403C28.2103 13.8682 27.6806 14.3498 27.6795 15.0003L27.6791 14.9999Z" fill="#3CBDFF"/>
<path d="M20.2869 15.0006C20.2856 16.2923 20.204 17.5828 20.0324 18.8629C20.0463 18.76 20.06 18.6573 20.0737 18.5544C19.8205 20.4138 19.3847 22.2617 18.6544 23.9944C18.6934 23.902 18.7323 23.8097 18.7713 23.7173C18.3852 24.6257 17.9165 25.5053 17.3117 26.2882C17.3723 26.21 17.4325 26.1316 17.4931 26.0534C17.1599 26.4808 16.7862 26.8769 16.3572 27.2095C16.4354 27.149 16.5138 27.0887 16.592 27.0282C16.3062 27.2469 15.9985 27.4348 15.6672 27.5764C15.7595 27.5374 15.8519 27.4985 15.9443 27.4595C15.6756 27.5719 15.3961 27.6516 15.1074 27.6924C15.2103 27.6785 15.3129 27.6648 15.4158 27.6511C15.139 27.6877 14.8603 27.6877 14.5834 27.6511C14.6863 27.6651 14.789 27.6787 14.8919 27.6924C14.6032 27.6516 14.3237 27.5719 14.055 27.4595C14.1473 27.4985 14.2397 27.5374 14.3321 27.5764C14.0008 27.4348 13.6931 27.2469 13.4073 27.0282C13.4854 27.0887 13.5639 27.149 13.642 27.2095C13.2131 26.8769 12.8394 26.4811 12.5062 26.0534C12.5667 26.1316 12.627 26.21 12.6875 26.2882C12.0827 25.5053 11.614 24.6257 11.228 23.7173L11.3448 23.9944C10.6145 22.2619 10.1787 20.4138 9.92555 18.5544C9.93949 18.6573 9.95318 18.76 9.96686 18.8629C9.69764 16.8546 9.64316 14.8164 9.7937 12.796C9.83501 12.2418 9.89292 11.6888 9.96686 11.1381C9.95292 11.241 9.93923 11.3436 9.92555 11.4465C10.1787 9.5872 10.6146 7.73927 11.3448 6.00655C11.3059 6.09892 11.2669 6.1913 11.228 6.28367C11.614 5.37524 12.0828 4.4957 12.6875 3.71278C12.627 3.79095 12.5667 3.86937 12.5062 3.94753C12.8394 3.52014 13.2131 3.12405 13.642 2.79144C13.5639 2.85197 13.4854 2.91224 13.4073 2.97276C13.6931 2.75407 14.0007 2.56616 14.3321 2.42458L14.055 2.54143C14.3237 2.42906 14.6032 2.34932 14.8919 2.30853C14.789 2.32248 14.6863 2.33616 14.5834 2.34985C14.8603 2.31327 15.139 2.31327 15.4158 2.34985C15.3129 2.3359 15.2103 2.32221 15.1074 2.30853C15.3961 2.34932 15.6756 2.42906 15.9443 2.54143C15.8519 2.50248 15.7595 2.46354 15.6672 2.42458C15.9985 2.56617 16.3062 2.75407 16.592 2.97276C16.5138 2.91223 16.4354 2.85197 16.3572 2.79144C16.7862 3.12409 17.1599 3.51986 17.4931 3.94753C17.4325 3.86937 17.3723 3.79095 17.3117 3.71278C17.9165 4.4957 18.3853 5.37524 18.7713 6.28367C18.7323 6.1913 18.6934 6.09892 18.6544 6.00655C19.3848 7.739 19.8206 9.5872 20.0737 11.4465C20.0598 11.3436 20.0461 11.241 20.0324 11.1381C20.204 12.4184 20.2856 13.709 20.2869 15.0006C20.2874 15.6075 20.8201 16.1888 21.447 16.1607C22.0752 16.1325 22.6078 15.6509 22.6071 15.0006C22.6042 12.1755 22.2526 9.28591 21.3491 6.60009C20.9733 5.4824 20.5058 4.37501 19.8861 3.36916C19.3782 2.54521 18.7639 1.7507 17.9981 1.15063C17.5436 0.794555 17.0955 0.524018 16.5615 0.304037C16.1412 0.130873 15.7038 0.0487609 15.2503 0.0116595C14.3566 -0.061499 13.4273 0.215612 12.6662 0.674579C10.8072 1.79544 9.70213 3.84972 8.93731 5.80901C7.93461 8.37754 7.50935 11.1856 7.41146 13.9299C7.30909 16.804 7.58726 19.7462 8.37651 22.5171C8.716 23.7085 9.16106 24.884 9.74161 25.9798C10.2203 26.8836 10.8193 27.7617 11.5615 28.4705C12.2318 29.1105 13.0507 29.6492 13.9608 29.8695C14.385 29.9722 14.8411 30.0261 15.278 29.9861C15.8425 29.9345 16.3212 29.8021 16.8384 29.5792C17.6505 29.229 18.3635 28.6166 18.9303 27.945C19.638 27.107 20.2033 26.172 20.651 25.1722C21.7797 22.6508 22.3258 19.922 22.5276 17.1753C22.5808 16.4513 22.6061 15.7254 22.6068 14.9994C22.6074 14.3925 22.0729 13.8111 21.4468 13.8393C20.818 13.8675 20.2875 14.3491 20.2869 14.9996L20.2869 15.0006Z" fill="#3CBDFF"/>
<path d="M13.8399 1.16154V1.90343V3.92221V6.89389V10.5333V14.5032V18.5271V22.2641V25.4358V27.7157C13.8399 28.0744 13.8359 28.4333 13.8399 28.7921C13.8402 28.8076 13.8399 28.8234 13.8399 28.8389C13.8399 29.4458 14.3736 30.0271 15 29.999C15.6284 29.9708 16.1601 29.4892 16.1601 28.8389V28.097V26.0782V23.1065V19.4671V15.4972V11.4733V7.73632V4.56462V2.28477C16.1601 1.92607 16.164 1.56713 16.1601 1.20838C16.1598 1.19285 16.1601 1.17706 16.1601 1.16154C16.1601 0.55467 15.6263 -0.0266898 15 0.00147143C14.3715 0.0296306 13.8399 0.511229 13.8399 1.16154Z" fill="#3CBDFF"/>
<path d="M1.16107 16.1598H1.90298H3.92179H6.89353H10.533H14.503H18.5269H22.264H25.4358H27.7157C28.0744 16.1598 28.4333 16.1637 28.7921 16.1598C28.8076 16.1595 28.8234 16.1598 28.8389 16.1598C29.4458 16.1598 30.0272 15.6261 29.999 14.9997C29.9709 14.3713 29.4893 13.8396 28.8389 13.8396H28.097H26.0782H23.1065H19.467H15.497H11.4731H7.73597H4.56421H2.28433C1.92562 13.8396 1.56667 13.8357 1.20791 13.8396C1.19239 13.8399 1.1766 13.8396 1.16107 13.8396C0.554192 13.8396 -0.0271785 14.3734 0.000983171 14.9997C0.0291429 15.6282 0.51075 16.1598 1.16107 16.1598Z" fill="#3CBDFF"/>
</svg>
