<svg width="30" height="23" viewBox="0 0 30 23" fill="none" xmlns="http://www.w3.org/2000/svg">
<path d="M17.7273 12.9375C16.5909 12.9375 15.625 12.5182 14.8295 11.6797C14.0341 10.8411 13.6364 9.82292 13.6364 8.625C13.6364 7.42708 14.0341 6.40885 14.8295 5.57031C15.625 4.73177 16.5909 4.3125 17.7273 4.3125C18.8636 4.3125 19.8295 4.73177 20.625 5.57031C21.4205 6.40885 21.8182 7.42708 21.8182 8.625C21.8182 9.82292 21.4205 10.8411 20.625 11.6797C19.8295 12.5182 18.8636 12.9375 17.7273 12.9375V12.9375M8.18182 17.25C7.43182 17.25 6.78977 16.9685 6.25568 16.4055C5.72159 15.8424 5.45455 15.1656 5.45455 14.375V2.875C5.45455 2.08437 5.72159 1.40755 6.25568 0.844531C6.78977 0.28151 7.43182 0 8.18182 0H27.2727C28.0227 0 28.6648 0.28151 29.1989 0.844531C29.733 1.40755 30 2.08437 30 2.875V14.375C30 15.1656 29.733 15.8424 29.1989 16.4055C28.6648 16.9685 28.0227 17.25 27.2727 17.25H8.18182V17.25M10.9091 14.375H24.5455C24.5455 13.5844 24.8125 12.9076 25.3466 12.3445C25.8807 11.7815 26.5227 11.5 27.2727 11.5V5.75C26.5227 5.75 25.8807 5.46849 25.3466 4.90547C24.8125 4.34245 24.5455 3.66563 24.5455 2.875H10.9091C10.9091 3.66563 10.642 4.34245 10.108 4.90547C9.57386 5.46849 8.93182 5.75 8.18182 5.75V11.5C8.93182 11.5 9.57386 11.7815 10.108 12.3445C10.642 12.9076 10.9091 13.5844 10.9091 14.375V14.375M25.9091 23H2.72727C1.97727 23 1.33523 22.7185 0.801136 22.1555C0.267045 21.5924 0 20.9156 0 20.125V4.3125H2.72727V20.125V20.125V20.125H25.9091V23V23M8.18182 14.375V14.375V14.375V14.375V2.875V2.875V2.875V2.875V2.875V2.875V14.375V14.375V14.375V14.375" fill="#3CBDFF"/>
</svg>
