<svg preserveAspectRatio="none" width="100%" height="100%" overflow="visible" style="display: block;" viewBox="0 0 80.0041 16.0004" fill="none" xmlns="http://www.w3.org/2000/svg">
<g id="VIIO logo">
<g id="Group" opacity="0.75">
<path id="Vector" d="M43.4429 0.469216L36.2037 15.7964H35.6793L28.3882 0.521504V0.469216H29.9613L35.0511 11.1986C35.418 12.0161 35.6793 12.5773 35.8905 13.1385C36.1347 12.4526 36.4339 11.7865 36.7853 11.1463L41.7678 0.469216H43.4429Z" fill="var(--fill-0, black)"/>
<path id="Vector_2" d="M48.3215 0.469216H49.8445V15.6936H48.3233L48.3215 0.469216Z" fill="var(--fill-0, black)"/>
<path id="Vector_3" d="M56.767 0.469216H58.2882V15.6936H56.767V0.469216Z" fill="var(--fill-0, black)"/>
<path id="Vector_4" d="M64.1619 8.08229C64.1619 3.58556 67.4656 0.21475 72.083 0.21475C76.7504 0.21475 80.0041 3.53501 80.0041 8.08229C80.0041 12.4239 76.7504 16.0004 72.083 16.0004C67.4674 15.9481 64.1619 12.4239 64.1619 8.08229ZM78.4793 8.08229C78.4793 4.3019 75.9075 1.5934 72.0794 1.5934C68.3014 1.5934 65.6795 4.3019 65.6795 8.08229C65.6795 11.657 68.2495 14.62 72.0794 14.62C75.9093 14.62 78.4793 11.657 78.4793 8.08229Z" fill="var(--fill-0, black)"/>
</g>
<path id="Vector_5" d="M22.3821 2.76464L18.4574 0.239154C18.2318 0.0836859 17.9623 0.000193876 17.686 0.000193876C17.4097 0.000193876 17.1402 0.0836859 16.9147 0.239154L12.2615 3.2422C12.0305 3.3867 11.7644 3.46908 11.4902 3.48098C11.213 3.4867 10.9417 3.40272 10.7188 3.2422L6.04958 0.239154C5.82432 0.0838335 5.55512 0.000418603 5.27912 0.000418603C5.00312 0.000418603 4.73392 0.0838335 4.50867 0.239154L0.582137 2.76464C0.404905 2.87788 0.25938 3.03227 0.158671 3.21391C0.0579615 3.39555 0.00523158 3.59874 0.00523158 3.80517C0.00523158 4.0116 0.0579615 4.21478 0.158671 4.39643C0.25938 4.57807 0.404905 4.73246 0.582137 4.84569L9.51974 10.5799C10.1057 10.9522 10.7888 11.1536 11.4884 11.1603C12.1888 11.1586 12.8732 10.9568 13.457 10.5799L22.3946 4.81257C22.5694 4.70088 22.7127 4.54837 22.8114 4.36894C22.9102 4.18951 22.9613 3.98887 22.96 3.78529C22.9588 3.58172 22.9052 3.38168 22.8043 3.20341C22.7034 3.02514 22.5582 2.8743 22.3821 2.76464Z" fill="var(--fill-0, black)"/>
<g id="Group_2" opacity="0.75">
<path id="Vector_6" d="M22.3821 7.20036L21.4354 6.58685L14.0405 11.3659C13.2811 11.8529 12.3923 12.1134 11.483 12.1154C10.574 12.1084 9.68604 11.8483 8.92382 11.3659L1.52353 6.58685L0.576798 7.20036C0.399572 7.3138 0.254076 7.46836 0.153394 7.65013C0.0527119 7.83191 0 8.03521 0 8.24175C0 8.44829 0.0527119 8.65159 0.153394 8.83337C0.254076 9.01515 0.399572 9.16971 0.576798 9.28315L10.1802 15.4949C10.5636 15.7456 11.015 15.8794 11.4768 15.8794C11.9386 15.8794 12.3899 15.7456 12.7734 15.4949L22.3768 9.28315C22.5547 9.17042 22.7009 9.01632 22.8024 8.83475C22.9038 8.65318 22.9572 8.44986 22.9577 8.24317C22.9582 8.03647 22.9059 7.83289 22.8054 7.65083C22.7049 7.46877 22.5594 7.31395 22.3821 7.20036Z" fill="var(--fill-0, black)"/>
</g>
</g>
</svg>
